<svg id="eAXPwjzsI0S1" xmlns="http://www.w3.org/2000/svg" xmlns:xlink="http://www.w3.org/1999/xlink" viewBox="0 0 300 300" shape-rendering="geometricPrecision" text-rendering="geometricPrecision" project-id="bb6576f818b6434bab299a5eca7795ab" export-id="e9f226c9e122463aa12a279d8a375835" cached="false"><path d="M46.00348,188.18419c12.80045-17.06727,22.60443-33.26085,23.97915-55.2563.42351-6.7762.52129-13.52702.52129-20.33015c0-3.14696.36479-12.19787-1.04257-9.38314-3.81604,7.63208,5.39861,63.96437,22.41529,59.42659c18.40018-4.90672,23.45786-33.43913,23.45786-48.47958c0-6.08167,0-12.16334,0-18.245c0-1.04257.73721-3.86492,0-3.12772-5.97096,5.97096-7.20426,83.47017,6.77672,86.01216c52.32846,9.51427,45.35187-61.20599,45.35187-92.78888c0-2.08514,0,4.17029,0,6.25543c0,7.69514-.027,15.26055.52129,22.93658c1.34355,18.80971,2.22129,39.00329,1.04257,57.86273-.07593,1.21494-3.58317,20.83397-4.69157,20.33015-7.50085-3.40948-17.67302-43.05171-9.90443-50.04344c11.37951-10.24155,37.63265,9.09689,44.83058-36.49001.81068-5.13433,3.79454-13.1168,2.08514-18.245-.28018-.84055-.39598,1.72932-.52129,2.60643-.54285,3.79995-.61868,7.65324-1.04257,11.46829-.91299,8.21689-1.91928,16.25461-2.60643,24.50044-1.96437,23.57244-4.69157,46.7542-4.69157,70.37359" transform="translate(.000001 0)" fill="none" stroke="#000" stroke-width="4"/></svg>
